# xmcd
#
# Track frame offsets: 
#        150
#        14839
#        24853
#        42456
#        62806
#        82270
#        97799
#        117919
#        143235
#        156277
#        172111
#        189106
#        210278
#        222109
#        233766
#
# Disc length: 3333 seconds
#
# Revision: 0
# Processed by: cddbd v1.5.2PL0 Copyright (c) Steve Scherf et al.
# Submitted via: ExactAudioCopy v0.95a4
#
DISCID=c80d030f
DTITLE=Blue Monday Blues Band - Still Alive
DYEAR=2005
DGENRE=Blues
TTITLE0=Tiger Man
TTITLE1=Don't Be Angry
TTITLE2=Information Blues
TTITLE3=Nobody But You
TTITLE4=Travelin' Heavy
TTITLE5=Moonshine Blues
TTITLE6=Szeren
TTITLE7=Black Cat Bone
TTITLE8=I Can't Be Satisfied
TTITLE9=TV Blues
TTITLE10=Rock This House
TTITLE11=Anything
TTITLE12=That's The Truth
TTITLE13=Gusti's Blues
TTITLE14=TV Blues (Alternate Take)
EXTD=
EXTT0=
EXTT1=
EXTT2=
EXTT3=
EXTT4=
EXTT5=
EXTT6=
EXTT7=
EXTT8=
EXTT9=
EXTT10=
EXTT11=
EXTT12=
EXTT13=
EXTT14=
PLAYORDER=
